<?xml version="1.0" encoding="UTF-8"?>
<!DOCTYPE svg PUBLIC "-//W3C//DTD SVG 1.1//EN" "http://www.w3.org/Graphics/SVG/1.1/DTD/svg11.dtd">
<svg xmlns="http://www.w3.org/2000/svg" version="1.1" width="32px" height="32px" style="shape-rendering:geometricPrecision; text-rendering:geometricPrecision; image-rendering:optimizeQuality; fill-rule:evenodd; clip-rule:evenodd" xmlns:xlink="http://www.w3.org/1999/xlink">
<g><path style="opacity:0.934" fill="#595959" d="M 31.5,5.5 C 31.5,7.83333 31.5,10.1667 31.5,12.5C 27.7461,21.6962 20.7461,25.3628 10.5,23.5C 9.21473,26.0205 8.54807,28.6872 8.5,31.5C 5.5,31.5 2.5,31.5 -0.5,31.5C -0.5,29.1667 -0.5,26.8333 -0.5,24.5C 2.27903,17.0709 4.61236,9.40421 6.5,1.5C 13.5079,1.33371 20.5079,1.50038 27.5,2C 29.3502,2.68972 30.6836,3.85639 31.5,5.5 Z M 15.5,6.5 C 22.9302,6.52599 24.2635,9.35932 19.5,15C 17.1703,16.3454 14.8369,16.5121 12.5,15.5C 13.3507,12.4223 14.3507,9.42227 15.5,6.5 Z"/></g>
</svg>
